<svg xmlns="http://www.w3.org/2000/svg" viewBox="0 0 1024 1024" xml:space="preserve">
  <path d="M650.615 604.599c-.82-3.148-.51-5.474 1.408-7.838 41.726-51.429 74.31-108.474 102.965-167.922 3.824-7.933 7.53-15.924 11.637-24.624l-37.594-15.212c37.336-26.073 73.674-50.852 111.276-76.054 6.063 46.208 11.727 91.222 16.558 136.304-2.503.986-3.83-.68-5.3-1.515-7.82-4.446-15.553-9.044-23.351-13.529-5.32-3.06-5.963-2.8-8.247 3.013-13.468 34.287-28.296 67.97-45.409 100.6-26.473 50.478-56.676 98.524-95.006 140.975-43.296 47.952-93.982 85.626-154.963 108.287-32.797 12.187-66.517 19.856-101.799 20.486-39.416.703-76.963-6.154-111.61-25.405-30.984-17.216-53.565-41.659-61.792-77.177-6.316-27.268-1.702-53.599 7.99-79.334 3.648-9.685 8.138-18.98 13.144-28.03.698-1.26 1.016-2.868 2.963-3.57.948 2.143-.495 3.749-1.16 5.398-6.397 15.877-10.92 32.237-10.939 49.442-.038 36.33 17.533 61.543 49.902 76.878 16.478 7.807 34.05 11.208 52.209 11.993 30.648 1.326 60.38-3.589 89.458-12.968 2.629-.848 4.64-.542 6.983.946 49.75 31.6 113.102 25.254 154.85-16.346 26.772-26.677 39.286-59.293 36.28-97.38-.183-2.326-.281-4.657-.453-7.418"/>
  <path d="M657.928 327.407c-20.488-.009-40.487.027-60.485-.038-16.29-.053-26.762-10.668-26.771-27.028-.015-24.498.003-48.996-.009-73.494-.003-6.878-.075-6.938-6.955-6.938-58.494-.006-116.989.021-175.483-.03-12.994-.011-25.987-.377-38.98-.429-14.599-.057-21.076 6.407-21.077 20.92-.01 153.653-.005 307.306-.004 460.959 0 10.185-.191 10.318-9.342 6.04-1.507-.705-2.946-1.556-4.444-2.281-12.327-5.967-18.097-14.136-18.018-29.464.745-145.317.454-290.639.465-435.96.002-30.618 21.229-51.789 51.94-51.796 74.66-.018 149.32.007 223.98-.109 5.695-.008 10.176 1.5 14.238 5.69 37.23 38.402 74.581 76.686 111.944 114.96 2.884 2.955 4.076 6.363 4.075 10.367q-.015 83.491.003 166.984c.001 2.213-.302 4.296-1.48 6.222-8.783 14.35-17.542 28.714-26.337 43.057-.575.939-1.066 2.157-2.897 1.923-1.03-1.86-.57-4.042-.57-6.105-.018-64.494-.003-128.988 0-193.482.002-9.907-.012-9.908-9.805-9.96-1.167-.007-2.333-.005-3.988-.008"/>
  <path d="M620.157 563.918c39.564 60.69 9.994 139.76-57.246 161.742-64.677 21.144-134.026-22.6-141.75-90.12-6.578-57.497 32.227-109.61 89.152-118.652 45.78-7.272 82.625 8.795 109.844 47.03m-117.584 4.116c-20.716 13.583-19.628 47.643 4.55 59 5.908 2.776 12.007 4.918 18.274 6.653 5.63 1.558 11.207 3.299 16.24 6.333 9.464 5.707 10.44 19.414 1.819 25.847-9.074 6.77-32.93 6.404-36.537-10.341-.457-2.121-1.468-3.212-3.704-3.183-4.33.057-8.664-.01-12.995.049-3.182.043-4.414 1.891-4.237 4.893.179 3.021.929 5.885 2.12 8.679 5.152 12.074 14.655 18.849 27.128 21.268 4.732.918 5.967 2.814 5.871 7.225-.176 8.18.022 8.182 8.481 7.683.665-.04 1.338-.092 1.998-.035 3.815.326 5.3-1.268 5.292-5.212-.018-8.318.208-8.15 8.028-10.228 13.563-3.606 22.808-12.053 25.386-25.992 2.522-13.633-.616-25.843-12.615-34.535-8.26-5.983-17.805-8.905-27.368-11.825-4.946-1.51-9.896-3.06-14.162-6.1-8.066-5.75-9.267-16.467-2.663-23.082 8.788-8.805 27.982-7.091 33.079 4.125 3.353 7.38 7.816 8.187 14.246 7.525 1.154-.12 2.332.007 3.497-.02 5.028-.117 6.183-1.482 5.126-6.495-2.609-12.372-9.755-21.582-21.658-25.363-8.033-2.552-12.87-5.435-11.04-14.638.51-2.566-1.032-3.967-3.81-3.96-14.138.034-11.921-1.246-11.916 10.396 0 .5-.038 1-.045 1.499-.038 2.542-1.124 3.856-3.846 4.207-5.01.647-9.598 2.655-14.539 5.627M471 388.33c-29.993.004-59.485.015-88.978.005-7.956-.003-10.366-2.176-10.417-9.253-.06-8.283 2.5-11.157 10.366-11.16 75.648-.034 151.296-.043 226.943-.005 9.289.004 13.88 7.227 10.164 15.747-1.736 3.981-5.196 4.687-9.113 4.68-22.994-.039-45.988-.005-68.982-.004-23.161.001-46.322-.007-69.983-.01m-20 33.402h154.93c1.167 0 2.333-.009 3.5.007 8.103.106 10.195 2.48 10.3 11.678.065 5.719-3.331 8.731-10.31 8.74-34.484.049-68.969.027-103.453.024q-61.473-.008-122.945-.023c-9.816-.003-13.98-5.58-11.06-15.023 1.356-4.385 4.861-5.423 9.069-5.414 23.156.05 46.313.016 69.97.01m28.311 71.229c-1.497 3.922-4.149 5.435-7.883 5.437-30.61.018-61.22.092-91.83.08-4.993-.002-7.66-2.723-7.97-7.639-.525-8.273 1.157-11.471 6.781-12.21 3.285-.432 6.633-.524 9.953-.532 26.119-.067 52.238-.055 78.356-.115 11.187-.025 14.308 3.506 12.593 14.978m-6.91-185.103c6.813 2.524 8.41 6.012 6.881 14.114-.79 4.187-3.963 6.233-9.953 6.237-29.123.018-58.247.02-87.37-.007-7.79-.007-10.323-2.518-10.331-10.004-.009-7.872 2.43-10.392 10.471-10.4 29.956-.033 59.91.002 90.302.06"/>
</svg>
